<svg xmlns="http://www.w3.org/2000/svg" viewBox="0 0 1024 1024">
  <!-- laptopcomputer SF Symbol, centered and tinted -->
  <g transform="translate(97, 240) scale(0.776)">
    <path d="M173.145 525.293L173.145 92.5781C173.145 65.625 186.621 52.4414 213.281 52.4414L857.227 52.4414C883.887 52.4414 897.363 65.625 897.363 92.5781L897.363 525.293Z" fill="#59b3ff" fill-opacity="0.2"/>
    <path d="M0 564.258C0 585.938 16.9922 603.223 38.3789 603.223L1032.13 603.223C1053.52 603.223 1070.51 585.938 1070.51 564.258C1070.51 542.578 1053.52 525.293 1032.13 525.293L949.219 525.293L949.219 78.8086C949.219 27.2461 921.973 0.585938 870.41 0.585938L200.098 0.585938C150.879 0.585938 121.289 27.2461 121.289 78.8086L121.289 525.293L38.3789 525.293C16.9922 525.293 0 542.578 0 564.258ZM173.145 525.293L173.145 92.5781C173.145 65.625 186.621 52.4414 213.281 52.4414L857.227 52.4414C883.887 52.4414 897.363 65.625 897.363 92.5781L897.363 525.293Z" fill="#59b3ff"/>
  </g>
</svg>
